<svg xmlns="http://www.w3.org/2000/svg" viewBox="0 0 192 96">
  <!-- Archer Sprite Sheet: 4 frames -->
  <!-- Frame 0: Idle -->
  <rect x="0" y="28" width="12" height="40" fill="#228b22"/>
  <rect x="12" y="8" width="16" height="20" fill="#228b22"/>
  <circle cx="20" cy="14" r="7" fill="#deb887"/>
  <rect x="28" y="28" width="12" height="40" fill="#228b22"/>
  <rect x="4" y="68" width="10" height="20" fill="#1a5c1a"/>
  <rect x="26" y="68" width="10" height="20" fill="#1a5c1a"/>
  <rect x="0" y="20" width="28" height="4" fill="#8b4513"/>
  
  <!-- Frame 1: Walk A -->
  <rect x="48" y="26" width="12" height="42" fill="#228b22"/>
  <rect x="60" y="8" width="16" height="20" fill="#228b22"/>
  <circle cx="68" cy="14" r="7" fill="#deb887"/>
  <rect x="76" y="28" width="12" height="40" fill="#228b22"/>
  <rect x="44" y="68" width="12" height="20" fill="#1a5c1a"/>
  <rect x="70" y="70" width="10" height="18" fill="#1a5c1a"/>
  <rect x="46" y="20" width="28" height="4" fill="#8b4513"/>
  
  <!-- Frame 2: Walk B -->
  <rect x="96" y="28" width="12" height="40" fill="#228b22"/>
  <rect x="108" y="8" width="16" height="20" fill="#228b22"/>
  <circle cx="116" cy="14" r="7" fill="#deb887"/>
  <rect x="124" y="26" width="12" height="42" fill="#228b22"/>
  <rect x="98" y="68" width="10" height="20" fill="#1a5c1a"/>
  <rect x="126" y="68" width="12" height="20" fill="#1a5c1a"/>
  <rect x="94" y="20" width="28" height="4" fill="#8b4513"/>
  
  <!-- Frame 3: Shoot -->
  <rect x="144" y="28" width="12" height="40" fill="#228b22"/>
  <rect x="156" y="8" width="16" height="20" fill="#228b22"/>
  <circle cx="164" cy="14" r="7" fill="#deb887"/>
  <rect x="172" y="28" width="12" height="40" fill="#228b22"/>
  <rect x="148" y="68" width="10" height="20" fill="#1a5c1a"/>
  <rect x="172" y="68" width="10" height="20" fill="#1a5c1a"/>
  <rect x="188" y="10" width="4" height="20" fill="#8b4513"/>
</svg>