<svg xmlns="http://www.w3.org/2000/svg" viewBox="0 0 256 192">
  <!-- Boss Watcher Sprite Sheet: 4 frames -->
  <!-- Frame 0: Idle A -->
  <rect x="64" y="32" width="48" height="80" fill="#4b0082"/>
  <rect x="56" y="8" width="64" height="48" fill="#4b0082"/>
  <circle cx="72" cy="28" r="10" fill="#9370db"/>
  <circle cx="104" cy="28" r="10" fill="#9370db"/>
  <circle cx="72" cy="28" r="5" fill="#222"/>
  <circle cx="104" cy="28" r="5" fill="#222"/>
  <rect x="40" y="112" width="24" height="64" fill="#3c0066"/>
  <rect x="112" y="112" width="24" height="64" fill="#3c0066"/>
  <rect x="40" y="176" width="32" height="16" fill="#222"/>
  <rect x="104" y="176" width="32" height="16" fill="#222"/>
  <!-- Crown -->
  <polygon points="56,8 64,0 72,8 80,0 88,8 96,0 104,8 120,8 120,16 56,16" fill="#ffd700"/>
  
  <!-- Frame 1: Idle B -->
  <rect x="192" y="32" width="48" height="80" fill="#4b0082"/>
  <rect x="184" y="8" width="64" height="48" fill="#4b0082"/>
  <circle cx="200" cy="28" r="10" fill="#9370db"/>
  <circle cx="232" cy="28" r="10" fill="#9370db"/>
  <circle cx="200" cy="28" r="5" fill="#222"/>
  <circle cx="232" cy="28" r="5" fill="#222"/>
  <rect x="168" y="112" width="24" height="64" fill="#3c0066"/>
  <rect x="240" y="112" width="24" height="64" fill="#3c0066"/>
  <rect x="160" y="176" width="32" height="16" fill="#222"/>
  <rect x="224" y="176" width="32" height="16" fill="#222"/>
  <polygon points="184,8 192,0 200,8 208,0 216,8 224,0 232,8 248,8 248,16 184,16" fill="#ffd700"/>
  
  <!-- Frame 2: Attack -->
  <rect x="0" y="32" width="48" height="80" fill="#4b0082"/>
  <rect x="0" y="8" width="64" height="48" fill="#4b0082"/>
  <circle cx="16" cy="28" r="10" fill="#9370db"/>
  <circle cx="48" cy="28" r="10" fill="#9370db"/>
  <circle cx="16" cy="28" r="5" fill="#ff0000"/>
  <circle cx="48" cy="28" r="5" fill="#ff0000"/>
  <rect x="0" y="112" width="24" height="64" fill="#3c0066"/>
  <rect x="24" y="112" width="24" height="64" fill="#3c0066"/>
  <rect x="0" y="176" width="32" height="16" fill="#222"/>
  <rect x="16" y="176" width="32" height="16" fill="#222"/>
  <polygon points="0,8 8,0 16,8 24,0 32,8 40,0 48,8 64,8 64,16 0,16" fill="#ffd700"/>
  <!-- Glow effect -->
  <ellipse cx="32" cy="80" rx="30" ry="40" fill="#9370db" opacity="0.5"/>
  
  <!-- Frame 3: Move A -->
  <rect x="320" y="32" width="48" height="80" fill="#4b0082"/>
  <rect x="312" y="8" width="64" height="48" fill="#4b0082"/>
  <circle cx="328" cy="28" r="10" fill="#9370db"/>
  <circle cx="360" cy="28" r="10" fill="#9370db"/>
  <circle cx="328" cy="28" r="5" fill="#222"/>
  <circle cx="360" cy="28" r="5" fill="#222"/>
  <rect x="296" y="112" width="24" height="64" fill="#3c0066"/>
  <rect x="368" y="112" width="24" height="64" fill="#3c0066"/>
  <rect x="288" y="176" width="32" height="16" fill="#222"/>
  <rect x="352" y="176" width="32" height="16" fill="#222"/>
  <polygon points="312,8 320,0 328,8 336,0 344,8 352,0 360,8 376,8 376,16 312,16" fill="#ffd700"/>
</svg>