<svg xmlns="http://www.w3.org/2000/svg" viewBox="0 0 192 64">
  <!-- Crab Sprite Sheet: 4 frames -->
  <!-- Frame 0: Idle A -->
  <ellipse cx="16" cy="40" rx="14" ry="10" fill="#cd5c5c"/>
  <rect x="0" y="32" width="8" height="8" fill="#8b0000"/>
  <rect x="24" y="32" width="8" height="8" fill="#8b0000"/>
  <circle cx="12" cy="36" r="3" fill="#222"/>
  <circle cx="20" cy="36" r="3" fill="#222"/>
  
  <!-- Frame 1: Idle B -->
  <ellipse cx="48" cy="38" rx="16" ry="12" fill="#cd5c5c"/>
  <rect x="32" y="30" width="8" height="8" fill="#8b0000"/>
  <rect x="56" y="30" width="8" height="8" fill="#8b0000"/>
  <circle cx="44" cy="34" r="3" fill="#222"/>
  <circle cx="52" cy="34" r="3" fill="#222"/>
  
  <!-- Frame 2: Walk A -->
  <ellipse cx="80" cy="40" rx="14" ry="10" fill="#cd5c5c"/>
  <rect x="66" y="32" width="6" height="8" fill="#8b0000"/>
  <rect x="88" y="34" width="6" height="6" fill="#8b0000"/>
  <circle cx="76" cy="36" r="3" fill="#222"/>
  <circle cx="84" cy="36" r="3" fill="#222"/>
  
  <!-- Frame 3: Walk B -->
  <ellipse cx="112" cy="40" rx="14" ry="10" fill="#cd5c5c"/>
  <rect x="98" y="34" width="6" height="6" fill="#8b0000"/>
  <rect x="120" y="32" width="6" height="8" fill="#8b0000"/>
  <circle cx="108" cy="36" r="3" fill="#222"/>
  <circle cx="116" cy="36" r="3" fill="#222"/>
</svg>