<svg xmlns="http://www.w3.org/2000/svg" viewBox="0 0 192 64">
  <!-- Skeleton Sprite Sheet: 4 frames -->
  <!-- Frame 0: Idle -->
  <rect x="0" y="20" width="8" height="30" fill="#ddd"/>
  <rect x="8" y="8" width="16" height="16" fill="#ddd"/>
  <circle cx="16" cy="12" r="6" fill="#222"/>
  <rect x="24" y="20" width="8" height="30" fill="#ddd"/>
  <rect x="4" y="50" width="8" height="12" fill="#666"/>
  <rect x="20" y="50" width="8" height="12" fill="#666"/>
  
  <!-- Frame 1: Walk A -->
  <rect x="48" y="18" width="8" height="32" fill="#ddd"/>
  <rect x="56" y="8" width="16" height="16" fill="#ddd"/>
  <circle cx="64" cy="12" r="6" fill="#222"/>
  <rect x="72" y="20" width="8" height="30" fill="#ddd"/>
  <rect x="44" y="50" width="10" height="12" fill="#666"/>
  <rect x="74" y="48" width="8" height="14" fill="#666"/>
  
  <!-- Frame 2: Walk B -->
  <rect x="96" y="20" width="8" height="30" fill="#ddd"/>
  <rect x="104" y="8" width="16" height="16" fill="#ddd"/>
  <circle cx="112" cy="12" r="6" fill="#222"/>
  <rect x="120" y="18" width="8" height="32" fill="#ddd"/>
  <rect x="98" y="50" width="8" height="12" fill="#666"/>
  <rect x="118" y="52" width="10" height="10" fill="#666"/>
  
  <!-- Frame 3: Attack -->
  <rect x="144" y="20" width="8" height="30" fill="#ddd"/>
  <rect x="152" y="8" width="16" height="16" fill="#ddd"/>
  <circle cx="160" cy="12" r="6" fill="#222"/>
  <rect x="168" y="20" width="8" height="30" fill="#ddd"/>
  <rect x="140" y="50" width="8" height="12" fill="#666"/>
  <rect x="170" y="50" width="8" height="12" fill="#666"/>
  <rect x="176" y="16" width="16" height="4" fill="#888"/>
</svg>