<svg xmlns="http://www.w3.org/2000/svg" viewBox="0 0 128 64">
  <!-- Player Sprite Sheet: 4 frames x 32x64 each -->
  <!-- Frame 0: Idle A -->
  <rect x="0" y="0" width="32" height="64" fill="#4a90d9"/>
  <circle cx="16" cy="12" r="10" fill="#ffcc99"/>
  <rect x="8" y="24" width="16" height="24" fill="#2d5a87"/>
  <rect x="6" y="24" width="6" height="20" fill="#2d5a87"/>
  <rect x="20" y="24" width="6" height="20" fill="#2d5a87"/>
  <rect x="8" y="48" width="6" height="16" fill="#1a3a5c"/>
  <rect x="18" y="48" width="6" height="16" fill="#1a3a5c"/>
  
  <!-- Frame 1: Idle B -->
  <rect x="32" y="0" width="32" height="64" fill="#4a90d9"/>
  <circle cx="48" cy="12" r="10" fill="#ffcc99"/>
  <rect x="40" y="24" width="16" height="24" fill="#2d5a87"/>
  <rect x="38" y="24" width="6" height="20" fill="#2d5a87"/>
  <rect x="50" y="24" width="6" height="20" fill="#2d5a87"/>
  <rect x="40" y="48" width="6" height="16" fill="#1a3a5c"/>
  <rect x="50" y="48" width="6" height="16" fill="#1a3a5c"/>
  
  <!-- Frame 2: Walk/Attack -->
  <rect x="64" y="0" width="32" height="64" fill="#4a90d9"/>
  <circle cx="80" cy="12" r="10" fill="#ffcc99"/>
  <rect x="72" y="24" width="16" height="24" fill="#2d5a87"/>
  <rect x="68" y="26" width="8" height="16" fill="#2d5a87"/>
  <rect x="88" y="20" width="14" height="4" fill="#888888"/>
  <rect x="70" y="48" width="6" height="16" fill="#1a3a5c"/>
  <rect x="82" y="50" width="6" height="14" fill="#1a3a5c"/>
  
  <!-- Frame 3: Jump -->
  <rect x="96" y="0" width="32" height="64" fill="#4a90d9"/>
  <circle cx="112" cy="12" r="10" fill="#ffcc99"/>
  <rect x="104" y="24" width="16" height="24" fill="#2d5a87"/>
  <rect x="102" y="28" width="6" height="14" fill="#2d5a87"/>
  <rect x="122" y="28" width="6" height="14" fill="#2d5a87"/>
  <rect x="104" y="48" width="6" height="12" fill="#1a3a5c"/>
  <rect x="114" y="48" width="6" height="12" fill="#1a3a5c"/>
</svg>